<svg version="1.1" xmlns="http://www.w3.org/2000/svg" xmlns:xlink="http://www.w3.org/1999/xlink" width="48" height="48" viewBox="0,0,256,256"><g fill="#ffffff" fill-rule="nonzero" stroke="none" stroke-width="1" stroke-linecap="butt" stroke-linejoin="miter" stroke-miterlimit="10" stroke-dasharray="" stroke-dashoffset="0" font-family="none" font-weight="none" font-size="none" text-anchor="none" style="mix-blend-mode: normal"><g transform="translate(0,256) scale(0.26667,0.26667)"><path d="M480,-132c-41,0 -75.91667,-14.41667 -104.75,-43.25c-28.83333,-28.83333 -43.25,-63.712 -43.25,-104.636c0,-27.76267 7.33333,-53.889 22,-78.379c14.66667,-24.49 35,-42.735 61,-54.735v-350c0,-18.94467 6.18533,-34.514 18.556,-46.708c12.37133,-12.19467 27.77433,-18.292 46.209,-18.292c18.43467,0 33.91567,6.09733 46.443,18.292c12.528,12.194 18.792,27.76333 18.792,46.708v350c26.33333,12 46.75,30.19467 61.25,54.584c14.5,24.38933 21.75,50.54967 21.75,78.481c0,40.95667 -14.41667,75.85167 -43.25,104.685c-28.83333,28.83333 -63.75,43.25 -104.75,43.25zM437,-499h86v-69h-43v-27.958h43v-93.917h-43v-27.458h43v-45.834c0,-11.994 -4.07967,-22.13133 -12.239,-30.412c-8.15933,-8.28067 -18.43633,-12.421 -30.831,-12.421c-12.39533,0 -22.649,4.073 -30.761,12.219c-8.11267,8.14533 -12.169,18.40567 -12.169,30.781z"></path></g></g></svg>