<svg version="1.1" xmlns="http://www.w3.org/2000/svg" xmlns:xlink="http://www.w3.org/1999/xlink" width="48" height="48" viewBox="0,0,256,256"><g fill="#ffffff" fill-rule="nonzero" stroke="none" stroke-width="1" stroke-linecap="butt" stroke-linejoin="miter" stroke-miterlimit="10" stroke-dasharray="" stroke-dashoffset="0" font-family="none" font-weight="none" font-size="none" text-anchor="none" style="mix-blend-mode: normal"><g transform="translate(-0.13333,256.13333) scale(0.26667,0.26667)"><path d="M432,-431c29.66667,30.33333 62.91667,57.08333 99.75,80.25c36.83333,23.16667 76.41667,41.91667 118.75,56.25c-24.33333,21.33333 -50.83333,37.5 -79.5,48.5c-28.66667,11 -58.66667,16.5 -90,16.5c-69.33333,0 -128.41667,-24.41667 -177.25,-73.25c-48.83333,-48.83333 -73.25,-107.91667 -73.25,-177.25c0,-31.33333 5.5,-61.33333 16.5,-90c11,-28.66667 27.16667,-55.16667 48.5,-79.5c14.33333,42.33333 33.08333,81.91667 56.25,118.75c23.16667,36.83333 49.91667,70.08333 80.25,99.75zM708.5,-374.5c-3.66667,-1 -7.5,-1.91667 -11.5,-2.75c-4,-0.83333 -7.5,-2.08333 -10.5,-3.75c7,-15.66667 12.58333,-31.66667 16.75,-48c4.16667,-16.33333 6.25,-33.33333 6.25,-51c0,-64 -22.25,-118.25 -66.75,-162.75c-44.5,-44.5 -98.75,-66.75 -162.75,-66.75c-17.66667,0 -34.66667,1.91667 -51,5.75c-16.33333,3.83333 -32.33333,9.25 -48,16.25c-1.66667,-3 -2.75,-6.16667 -3.25,-9.5c-0.5,-3.33333 -1.25,-6.83333 -2.25,-10.5c16,-7.66667 32.83333,-13.58333 50.5,-17.75c17.66667,-4.16667 36,-6.25 55,-6.25c69.33333,0 128.58333,24.58333 177.75,73.75c49.16667,49.16667 73.75,108.41667 73.75,177.75c0,19 -2.08333,37.33333 -6.25,55c-4.16667,17.66667 -10.08333,34.5 -17.75,50.5zM469.5,-826.5v-88h22v88zM469.5,-46.5v-88h22v88zM733,-717.5l-15.5,-15.5l59.5,-60.5l16.5,16.5zM183,-167.5l-15.5,-15.5l59.5,-60.5l16.5,16.5zM826.5,-469.5v-22h88v22zM46.5,-469.5v-22h88v22zM777,-167.5l-59.5,-59.5l15.5,-16.5l60.5,60.5zM227,-717.5l-59.5,-59.5l15.5,-16.5l60.5,60.5z"></path></g></g></svg>