<svg version="1.1" xmlns="http://www.w3.org/2000/svg" xmlns:xlink="http://www.w3.org/1999/xlink" width="48" height="48" viewBox="0,0,256,256"><g fill="#ffffff" fill-rule="nonzero" stroke="none" stroke-width="1" stroke-linecap="butt" stroke-linejoin="miter" stroke-miterlimit="10" stroke-dasharray="" stroke-dashoffset="0" font-family="none" font-weight="none" font-size="none" text-anchor="none" style="mix-blend-mode: normal"><g transform="translate(0,256.26667) scale(0.26667,0.26667)"><path d="M796,-121l-263,-263c-20,17.33333 -43.31967,30.83333 -69.959,40.5c-26.63933,9.66667 -54.98633,14.5 -85.041,14.5c-72.108,0 -133.135,-25 -183.081,-75c-49.946,-50 -74.919,-110.33333 -74.919,-181c0,-70.66667 25,-131 75,-181c50,-50 110.5,-75 181.5,-75c71,0 131.33333,25 181,75c49.66667,50 74.5,110.38333 74.5,181.15c0,28.56667 -4.66667,56.18333 -14,82.85c-9.33333,26.66667 -23.33333,51.66667 -42,75l264,262zM377,-389c54.16667,0 100.20833,-19.16667 138.125,-57.5c37.91667,-38.33333 56.875,-84.5 56.875,-138.5c0,-54 -18.95833,-100.16667 -56.875,-138.5c-37.91667,-38.33333 -83.95833,-57.5 -138.125,-57.5c-54.722,0 -101.236,19.16667 -139.542,57.5c-38.30533,38.33333 -57.458,84.5 -57.458,138.5c0,54 19.15267,100.16667 57.458,138.5c38.306,38.33333 84.82,57.5 139.542,57.5z"></path></g></g></svg>