<svg version="1.1" xmlns="http://www.w3.org/2000/svg" xmlns:xlink="http://www.w3.org/1999/xlink" width="48" height="48" viewBox="0,0,256,256"><g fill="#ffffff" fill-rule="nonzero" stroke="none" stroke-width="1" stroke-linecap="butt" stroke-linejoin="miter" stroke-miterlimit="10" stroke-dasharray="" stroke-dashoffset="0" font-family="none" font-weight="none" font-size="none" text-anchor="none" style="mix-blend-mode: normal"><g transform="translate(0,261.33333) scale(0.26667,0.26667)"><path d="M465,-160c-36,0 -64.5,-9.33333 -85.5,-28c-21,-18.66667 -31.5,-47 -31.5,-85h68c0,17.33333 3.83333,30.5 11.5,39.5c7.66667,9 20.16667,13.5 37.5,13.5c18,0 30.83333,-4 38.5,-12c7.66667,-8 11.5,-21.66667 11.5,-41c0,-19.33333 -3.83333,-33.5 -11.5,-42.5c-7.66667,-9 -20.5,-13.5 -38.5,-13.5h-385v-60h385c36,0 63.33333,9.33333 82,28c18.66667,18.66667 28,48 28,88c0,38 -9.33333,66.33333 -28,85c-18.66667,18.66667 -46,28 -82,28zM80,-568v-60h548c24.66667,0 42.66667,-5.83333 54,-17.5c11.33333,-11.66667 17,-31.16667 17,-58.5c0,-27.33333 -5.66667,-46.83333 -17,-58.5c-11.33333,-11.66667 -29.33333,-17.5 -54,-17.5c-25.33333,0 -43.66667,6.83333 -55,20.5c-11.33333,13.66667 -17,30.83333 -17,51.5h-60c0,-38.66667 11.66667,-70.33333 35,-95c23.33333,-24.66667 55.66667,-37 97,-37c40.66667,0 72.66667,11.83333 96,35.5c23.33333,23.66667 35,57.16667 35,100.5c0,43.33333 -11.66667,76.83333 -35,100.5c-23.33333,23.66667 -55.33333,35.5 -96,35.5zM752,-238v-60c23.33333,0 40.5,-6.5 51.5,-19.5c11,-13 16.5,-31.83333 16.5,-56.5c0,-25.33333 -6.16667,-43.66667 -18.5,-55c-12.33333,-11.33333 -30.16667,-17 -53.5,-17h-668v-60h668c41.33333,0 73.66667,11.66667 97,35c23.33333,23.33333 35,55.66667 35,97c0,42.66667 -11,76 -33,100c-22,24 -53.66667,36 -95,36z"></path></g></g></svg>