<svg version="1.1" xmlns="http://www.w3.org/2000/svg" xmlns:xlink="http://www.w3.org/1999/xlink" width="48" height="48" viewBox="0,0,256,256"><g fill="#ffffff" fill-rule="nonzero" stroke="none" stroke-width="1" stroke-linecap="butt" stroke-linejoin="miter" stroke-miterlimit="10" stroke-dasharray="" stroke-dashoffset="0" font-family="none" font-weight="none" font-size="none" text-anchor="none" style="mix-blend-mode: normal"><g transform="translate(0,256) scale(0.26667,0.26667)"><path d="M480.089,-490c19.274,0 35.74433,-6.863 49.411,-20.589c13.66667,-13.72533 20.5,-30.22533 20.5,-49.5c0,-19.274 -6.863,-35.74433 -20.589,-49.411c-13.72533,-13.66667 -30.22533,-20.5 -49.5,-20.5c-19.274,0 -35.74433,6.863 -49.411,20.589c-13.66667,13.72533 -20.5,30.22533 -20.5,49.5c0,19.274 6.863,35.74433 20.589,49.411c13.72533,13.66667 30.22533,20.5 49.5,20.5zM480,-80c-107.33333,-91.33333 -187.5,-176.16667 -240.5,-254.5c-53,-78.33333 -79.5,-150.83333 -79.5,-217.5c0,-100 32.16667,-179.66667 96.5,-239c64.33333,-59.33333 138.83333,-89 223.5,-89c84.66667,0 159.16667,29.66667 223.5,89c64.33333,59.33333 96.5,139 96.5,239c0,66.66667 -26.5,139.16667 -79.5,217.5c-53,78.33333 -133.16667,163.16667 -240.5,254.5z"></path></g></g></svg>