<svg version="1.1" xmlns="http://www.w3.org/2000/svg" xmlns:xlink="http://www.w3.org/1999/xlink" width="48" height="48" viewBox="0,0,256,256"><g fill="#ffffff" fill-rule="nonzero" stroke="none" stroke-width="1" stroke-linecap="butt" stroke-linejoin="miter" stroke-miterlimit="10" stroke-dasharray="" stroke-dashoffset="0" font-family="none" font-weight="none" font-size="none" text-anchor="none" style="mix-blend-mode: normal"><g transform="translate(0,256) scale(0.26667,0.26667)"><path d="M580.118,-250c13.92133,0 25.71533,-4.87267 35.382,-14.618c9.66667,-9.74467 14.5,-21.578 14.5,-35.5c0,-13.92133 -4.87267,-25.71533 -14.618,-35.382c-9.74467,-9.66667 -21.578,-14.5 -35.5,-14.5c-13.92133,0 -25.71533,4.87267 -35.382,14.618c-9.66667,9.74467 -14.5,21.578 -14.5,35.5c0,13.92133 4.87267,25.71533 14.618,35.382c9.74467,9.66667 21.578,14.5 35.5,14.5zM378,-256l246,-246l-42,-42l-246,246zM380.118,-450c13.92133,0 25.71533,-4.87267 35.382,-14.618c9.66667,-9.74467 14.5,-21.578 14.5,-35.5c0,-13.92133 -4.87267,-25.71533 -14.618,-35.382c-9.74467,-9.66667 -21.578,-14.5 -35.5,-14.5c-13.92133,0 -25.71533,4.87267 -35.382,14.618c-9.66667,9.74467 -14.5,21.578 -14.5,35.5c0,13.92133 4.87267,25.71533 14.618,35.382c9.74467,9.66667 21.578,14.5 35.5,14.5zM480,-80c-91.33333,0 -167.5,-31.33333 -228.5,-94c-61,-62.66667 -91.5,-140.66667 -91.5,-234c0,-66.66667 26.5,-139.16667 79.5,-217.5c53,-78.33333 133.16667,-163.16667 240.5,-254.5c107.33333,91.33333 187.5,176.16667 240.5,254.5c53,78.33333 79.5,150.83333 79.5,217.5c0,93.33333 -30.5,171.33333 -91.5,234c-61,62.66667 -137.16667,94 -228.5,94z"></path></g></g></svg>